<svg viewBox="123.1 212 254.0387 80.1724" xmlns="http://www.w3.org/2000/svg" style="width: 105px;padding-top: 20px;">
  <g transform="matrix(0.10000000149011612, 0, 0, -0.10000000149011612, 0, 500)" stroke="none" fill="#078">
    <path d="M1250 2620 l0 -260 50 0 49 0 3 108 3 107 120 0 120 0 3 -107 3 -108 49 0 50 0 0 260 0 260 -50 0 -50 0 0 -105 0 -105 -125 0 -125 0 0 105 0 105 -50 0 -50 0 0 -260z"></path>
    <path d="M1780 2620 l0 -260 55 0 55 0 0 100 0 100 60 0 60 0 50 -100 50 -100 55 0 c30 0 55 3 55 6 0 3 -25 52 -54 108 l-55 101 29 17 c69 39 92 142 47 209 -12 19 -42 44 -67 57 -40 20 -59 22 -192 22 l-148 0 0 -260z m305 145 c30 -30 31 -54 4 -89 -19 -25 -25 -26 -110 -26 l-89 0 0 70 0 70 85 0 c78 0 88 -2 110 -25z"></path>
    <path d="M2470 2653 c-51 -126 -99 -243 -107 -260 l-13 -33 53 0 54 0 27 70 28 71 111 -3 110 -3 25 -67 25 -68 53 0 c30 0 54 3 54 8 0 4 -46 121 -102 260 l-102 252 -62 0 -61 0 -93 -227z m206 -10 l24 -63 -75 0 c-42 0 -75 4 -75 10 0 10 57 157 68 174 6 10 16 -11 58 -121z"></path>
    <path d="M2920 2480 l0 -270 50 0 50 0 0 89 0 89 31 -15 c47 -23 137 -14 188 20 119 79 106 274 -21 336 -51 24 -114 27 -163 7 -29 -12 -34 -12 -39 0 -4 9 -21 14 -51 14 l-45 0 0 -270z m271 154 c98 -94 -19 -242 -141 -179 -30 15 -30 16 -30 101 l0 85 33 15 c46 20 103 11 138 -22z"></path>
    <path d="M3370 2480 l0 -270 50 0 50 0 0 86 c0 84 0 85 23 77 12 -4 52 -8 88 -8 55 0 72 4 107 28 120 79 108 274 -20 336 -52 25 -121 27 -162 6 -27 -14 -31 -14 -38 0 -6 10 -24 15 -53 15 l-45 0 0 -270z m271 154 c98 -94 -19 -242 -141 -179 -30 15 -30 16 -30 101 l0 85 33 15 c46 20 103 11 138 -22z"></path>
    <path d="M1237 2148 c14 -74 9 -71 124 -69 57 1 379 13 714 26 336 14 835 34 1110 45 275 11 523 21 550 23 28 2 -525 4 -1227 5 l-1277 2 6 -32z"></path>
  </g>
</svg>